<?xml version="1.0" encoding="UTF-8"?>
<svg id="Layer_1" xmlns="http://www.w3.org/2000/svg" version="1.1" viewBox="0 0 200 200">
  <!-- Generator: Adobe Illustrator 30.2.1, SVG Export Plug-In . SVG Version: 2.1.1 Build 1)  -->
  <defs>
    <style>
      .st0 {
        fill: #113233;
      }
    </style>
  </defs>
  <path class="st0" d="M72.12,0H0v53.07c0-.37,0-.73.03-1.1.35-5.17,2.98-9.87,7.4-13.24,7.41-5.65,20.7-7.64,23.29-7.99l12.28-1.62-1.62,12.28c-.34,2.59-2.33,15.88-7.98,23.29-3.37,4.42-8.08,7.05-13.25,7.4-3.83.22-7.63-.71-10.91-2.7l13.57-20.08L2.73,62.88c-1.79-2.97-2.73-6.36-2.73-9.81v146.93h100V0h-27.88ZM91.38,141.4c-.34,2.59-2.33,15.88-7.98,23.29-3.37,4.42-8.08,7.05-13.25,7.4-3.83.22-7.63-.71-10.91-2.7l13.57-20.08-20.08,13.57c-1.98-3.28-2.92-7.09-2.7-10.91.35-5.17,2.98-9.87,7.4-13.24,7.41-5.65,20.7-7.64,23.29-7.99l12.28-1.62-1.62,12.28Z"/>
  <path class="st0" d="M172.12,0h-72.12v53.07c0-.37,0-.73.03-1.1.35-5.17,2.98-9.87,7.4-13.24,7.41-5.65,20.7-7.64,23.29-7.99l12.28-1.62-1.62,12.28c-.34,2.59-2.33,15.88-7.98,23.29-3.37,4.42-8.08,7.05-13.25,7.4-3.83.22-7.63-.71-10.91-2.7l13.57-20.08-20.08,13.57c-1.79-2.97-2.73-6.36-2.73-9.81v146.93h100V0h-27.88ZM191.38,141.4c-.34,2.59-2.33,15.88-7.98,23.29-3.37,4.42-8.08,7.05-13.25,7.4-3.83.22-7.63-.71-10.91-2.7l13.57-20.08-20.08,13.57c-1.98-3.28-2.92-7.09-2.7-10.91.35-5.17,2.98-9.87,7.4-13.24,7.41-5.65,20.7-7.64,23.29-7.99l12.28-1.62-1.62,12.28Z"/>
</svg>