<?xml version="1.0" encoding="UTF-8"?>
<svg id="Layer_1" xmlns="http://www.w3.org/2000/svg" version="1.1" viewBox="0 0 349.19 718.63">
  <!-- Generator: Adobe Illustrator 30.2.1, SVG Export Plug-In . SVG Version: 2.1.1 Build 1)  -->
  <defs>
    <style>
      .st0 {
        fill: #c6ebe0;
      }
    </style>
  </defs>
  <path class="st0" d="M93.03,474.24l6.86-98.69,74.7,77.54,74.7-77.54,6.86,98.69c50.77,26.63,85.45,76.26,93,133.09l-29.51-425.29-145.05,150.56L29.59,182.04,0,607.31c7.56-56.83,42.25-106.46,93.03-133.07Z"/>
  <circle class="st0" cx="174.59" cy="626.13" r="92.5"/>
  <path class="st0" d="M248.52,128.64c-5-37.18-37.19-80.7-43.59-89.05L174.59,0l-30.34,39.59c-6.4,8.35-38.57,51.87-43.59,89.05-3,22.2,2.91,43.07,16.64,58.79,10.26,11.54,23.78,19.7,38.77,23.39l18.52-95.8,18.52,95.8c14.99-3.69,28.51-11.85,38.77-23.39,13.71-15.72,19.64-36.59,16.64-58.79h0Z"/>
</svg>