<svg id="Layer_1" data-name="Layer 1" xmlns="http://www.w3.org/2000/svg" viewBox="0 0 349.19 718.63"><path d="M318.44,514.93l6.86-98.69L400,493.78l74.7-77.54,6.86,98.69a176.52,176.52,0,0,1,93,133.09L545.05,222.73,400,373.29,255,222.73,225.41,648A176.5,176.5,0,0,1,318.44,514.93Z" transform="translate(-225.41 -40.69)"/><circle cx="174.59" cy="626.13" r="92.5"/><path d="M473.93,169.33c-5-37.18-37.19-80.7-43.59-89.05L400,40.69,369.66,80.28c-6.4,8.35-38.57,51.87-43.59,89.05-3,22.2,2.91,43.07,16.64,58.79a76.27,76.27,0,0,0,38.77,23.39L400,155.71l18.52,95.8a76.27,76.27,0,0,0,38.77-23.39C471,212.4,476.93,191.53,473.93,169.33Z" transform="translate(-225.41 -40.69)"/><path d="M318.44,514.93l6.86-98.69L400,493.77l74.7-77.53,6.86,98.69a176.52,176.52,0,0,1,93,133.1l-29.54-425.3L400,373.29,255,222.73,225.41,648A176.5,176.5,0,0,1,318.44,514.93Z" transform="translate(-225.41 -40.69)"/></svg>